<svg width="460" height="460" viewBox="0 0 460 460" fill="none" xmlns="http://www.w3.org/2000/svg">
<rect width="460" height="460" fill="white"/>
<path d="M354.79 292.12H370L349.103 262.308L364.818 242.412H349.676L335.644 259.956V222.985H328.914C327.443 222.994 326.034 223.574 324.985 224.603C323.935 225.632 323.329 227.029 323.294 228.497V292.12H335.644V279.348L340.96 272.626L354.79 292.12ZM291.394 292.12V248.024C291.394 246.527 291.99 245.091 293.05 244.032C294.11 242.973 295.548 242.378 297.047 242.378H303.306V254.477C304.22 250.935 306.252 247.78 309.1 245.48C311.948 243.18 315.462 241.857 319.121 241.706L321.376 241.907V254.074C320.389 254.074 319.413 254.007 318.449 253.872C315.37 253.908 312.388 254.949 309.957 256.836C307.527 258.724 305.782 261.354 304.989 264.325C304.226 266.956 303.863 269.686 303.912 272.425V292.12H291.394ZM245.193 264.997C245.201 267.017 245.613 269.015 246.404 270.873C247.196 272.732 248.351 274.413 249.803 275.819C251.205 277.199 252.866 278.29 254.691 279.028C256.515 279.766 258.468 280.138 260.436 280.121H261.614C263.619 280.118 265.602 279.711 267.446 278.926C269.291 278.141 270.958 276.993 272.348 275.551C275.135 272.717 276.695 268.902 276.689 264.93H288.938C288.911 272.172 286.028 279.112 280.914 284.246C275.799 289.38 268.865 292.293 261.614 292.355H260.504C253.233 292.355 246.259 289.475 241.111 284.346C235.964 279.218 233.063 272.259 233.045 264.997H245.193ZM218.946 242.378L210.433 271.013L201.919 242.378H188.729L180.215 271.013L171.702 242.378H165.981C164.559 242.413 163.207 243.002 162.213 244.019C161.22 245.037 160.664 246.402 160.665 247.823C160.658 248.358 160.738 248.892 160.9 249.402L173.956 292.12H186.575L195.324 263.518L204.073 292.12H216.792L232.036 242.412L218.946 242.378ZM245.193 235.757C245.201 233.737 245.613 231.739 246.404 229.881C247.196 228.022 248.351 226.341 249.803 224.935C251.205 223.555 252.866 222.464 254.691 221.726C256.515 220.988 258.468 220.616 260.436 220.633H261.614C263.614 220.627 265.595 221.023 267.438 221.797C269.282 222.571 270.952 223.706 272.348 225.136C275.135 227.97 276.695 231.785 276.689 235.757H288.938C288.911 228.514 286.028 221.574 280.914 216.441C275.799 211.307 268.865 208.393 261.614 208.331H260.537C253.272 208.34 246.305 211.218 241.155 216.336C236.005 221.455 233.09 228.399 233.045 235.656L245.193 235.757ZM216.893 168H223.623V220.565C223.623 225.708 225.205 227.287 228.704 227.287H230.555V238.11C229.264 238.312 227.959 238.413 226.652 238.412C223.108 238.574 219.596 237.686 216.557 235.858C213.192 233.807 211.408 229.136 211.408 222.414V173.646C211.408 172.178 211.98 170.766 213.004 169.712C214.028 168.658 215.423 168.044 216.893 168ZM194.516 168H201.246V220.565C201.246 225.708 202.828 227.287 206.327 227.287H208.178V238.11C206.887 238.312 205.582 238.413 204.275 238.412C200.73 238.581 197.216 237.691 194.18 235.858C190.815 233.807 188.998 229.136 188.998 222.414V173.646C188.997 172.172 189.574 170.756 190.606 169.701C191.637 168.645 193.04 168.035 194.516 168ZM146.061 193.644C148.427 191.23 151.271 189.336 154.411 188.08C157.551 186.824 160.918 186.235 164.299 186.351C167.335 186.179 170.37 186.694 173.178 187.858C175.987 189.022 178.496 190.805 180.518 193.073C184.506 197.745 186.595 203.741 186.373 209.877L186.07 214.65H151.714C151.982 218.362 153.697 221.822 156.49 224.285C159.284 226.748 162.933 228.019 166.654 227.825C171.151 227.662 175.511 226.242 179.239 223.725L181.023 222.347L185.801 231.22C184.807 232.227 183.674 233.088 182.436 233.774C177.449 236.912 171.674 238.579 165.779 238.58C162.203 238.713 158.637 238.117 155.299 236.829C151.961 235.54 148.92 233.586 146.363 231.085C143.968 228.634 142.086 225.732 140.826 222.546C139.567 219.361 138.955 215.957 139.028 212.533C138.87 209.074 139.411 205.619 140.62 202.374C141.828 199.128 143.678 196.159 146.061 193.644ZM173.889 206.214C174.075 203.676 173.249 201.167 171.591 199.235C169.934 197.302 167.579 196.102 165.039 195.896H164.03C161.102 195.778 158.24 196.78 156.026 198.697C153.813 200.615 152.415 203.303 152.118 206.214H173.889ZM90 237.236V173.646C90 172.149 90.5956 170.713 91.6558 169.654C92.7159 168.595 94.1539 168 95.6532 168H102.383V191.997L102.215 196.165H102.417C104.105 193.115 106.597 190.585 109.622 188.85C112.647 187.114 116.09 186.238 119.578 186.317C131.12 186.317 136.874 192.669 136.874 205.239V237.236H124.592V207.794C124.592 201.072 122.64 197.711 116.684 197.711C113.628 197.755 110.667 198.782 108.242 200.641C105.817 202.5 104.057 205.091 103.224 208.029C102.681 210.136 102.421 212.306 102.45 214.482V237.236H90Z" fill="black"/>
</svg>
