<svg width="460" height="460" viewBox="0 0 460 460" fill="none" xmlns="http://www.w3.org/2000/svg">
<rect width="460" height="460" fill="#2E32BE"/>
<path fill-rule="evenodd" clip-rule="evenodd" d="M103 180V278.974H118.592V180H103Z" fill="white"/>
<path fill-rule="evenodd" clip-rule="evenodd" d="M142.445 254.462L193.374 245.275L193.642 244.203C193.77 243.689 193.757 243.223 193.738 242.902C193.73 242.758 193.721 242.648 193.714 242.554C193.702 242.396 193.693 242.281 193.693 242.12V242.056L193.688 241.992C192.338 224.162 177.238 210.148 159.189 210.013L159.177 210.013L159.164 210.013C139.906 210.148 124.403 225.654 124.403 244.942C124.403 248.565 124.938 252.348 126.162 255.887C131.018 270.191 144.882 279.608 159.165 279.743C169.458 279.811 177.375 275.761 182.992 270.911C188.575 266.091 191.946 260.433 193.2 257.086L193.829 255.406L180.155 251.013L179.606 252.587C178.792 254.922 176.439 258.056 172.816 260.621C169.23 263.159 164.537 265.036 159.176 265.036H159.152C151.791 265.143 145.382 260.765 142.445 254.462ZM190.921 258.064C188.033 264.08 179.75 274.947 165.601 277.49C181.043 274.714 189.497 262.025 191.577 256.545C191.403 257.004 191.184 257.514 190.921 258.064ZM140.252 241.301C141.108 232.168 148.743 224.812 157.836 224.462C165.352 224.14 172.426 228.558 175.732 235.297L140.25 241.597C140.251 241.484 140.252 241.386 140.252 241.301ZM159.332 222.747C167.115 223.03 174.199 227.888 177.477 234.987C177.721 235.514 177.944 236.053 178.144 236.604C175.248 228.634 167.694 223.051 159.332 222.747Z" fill="white"/>
<path fill-rule="evenodd" clip-rule="evenodd" d="M215.349 254.462L266.278 245.275L266.546 244.203C266.674 243.689 266.661 243.223 266.642 242.902C266.634 242.758 266.625 242.648 266.618 242.554L266.617 242.543C266.606 242.391 266.597 242.278 266.597 242.12V242.056L266.592 241.992C265.243 224.162 250.142 210.148 232.093 210.013L232.081 210.013L232.068 210.013C212.81 210.148 197.307 225.654 197.307 244.942C197.307 248.565 197.842 252.348 199.065 255.886C203.922 270.191 217.786 279.608 232.069 279.743C242.363 279.811 250.279 275.761 255.896 270.911C261.479 266.091 264.85 260.433 266.104 257.086L266.733 255.406L253.059 251.013L252.51 252.587C251.696 254.922 249.343 258.056 245.72 260.621C242.133 263.159 237.441 265.036 232.08 265.036H232.055C224.695 265.143 218.286 260.765 215.349 254.462ZM213.156 241.301C214.012 232.168 221.647 224.812 230.74 224.462C238.256 224.14 245.33 228.558 248.636 235.297L213.154 241.597C213.155 241.484 213.156 241.386 213.156 241.301ZM234.429 222.949C241.329 223.972 247.413 228.561 250.381 234.987C250.624 235.514 250.848 236.053 251.048 236.604C248.407 229.337 241.895 224.056 234.429 222.949Z" fill="white"/>
<path d="M316.398 270.102L308.832 258.078L307.194 260.335C307.194 260.335 306.892 260.759 306.71 261.039C306.347 261.599 305.79 262.274 305.066 262.922C303.606 264.229 301.624 265.293 299.349 265.293C295.607 265.293 291.574 262.14 291.574 256.229V225.874H309.003V211.424H291.574V189.636L275.981 190.622V211.424H266.882V225.874H275.981V259.564C275.981 266.511 278.312 271.697 282.238 275.122C286.126 278.513 291.374 280 296.913 280C302.809 280 307.502 277.743 310.688 275.526C312.284 274.415 313.518 273.304 314.358 272.466C314.779 272.046 315.102 271.693 315.325 271.44C315.436 271.313 315.522 271.211 315.582 271.138C315.613 271.101 315.637 271.071 315.654 271.05L315.675 271.023L315.687 271.009L316.398 270.102Z" fill="white"/>
<path fill-rule="evenodd" clip-rule="evenodd" d="M313.454 245.199C313.454 264.352 328.953 280 348.227 280C367.369 280 383 264.356 383 245.199C383 226.041 367.369 210.398 348.227 210.398C328.953 210.398 313.454 226.046 313.454 245.199ZM367.792 245.199C367.792 256.608 359.418 265.036 348.612 265.036C337.684 265.036 329.431 256.615 329.431 245.199C329.431 233.768 337.697 225.233 348.612 225.233C359.405 225.233 367.792 233.776 367.792 245.199Z" fill="white"/>
</svg>
