<svg width="460" height="460" viewBox="0 0 460 460" fill="none" xmlns="http://www.w3.org/2000/svg">
<rect width="460" height="460" fill="#1B1E2E"/>
<g clip-path="url(#clip0_12_91)">
<path d="M94.9818 267.093C91.6807 255.071 90 242.584 90 230.008C90 172.595 126.057 120.1 179.731 99.3987L186.768 117.612C140.567 135.435 109.537 180.6 109.537 230.008C109.537 240.845 110.977 251.578 113.813 261.921L94.9818 267.093Z" fill="#58D09E"/>
<path d="M178.793 99.8459C190.404 95.3062 202.646 92.3295 215.154 91.0149C272.252 85.0137 328.229 115.386 354.427 166.602L337.049 175.504C314.495 131.42 266.333 105.28 217.196 110.445C206.418 111.577 195.895 114.132 185.905 118.033L178.793 99.8459Z" fill="#58D09E"/>
<path d="M294.082 331.8C332.208 307.497 353.443 264.369 349.497 219.27C348.099 203.291 343.664 188.029 336.338 173.939L353.649 164.908C362.17 181.289 367.331 199.002 368.955 217.568C373.539 269.961 348.88 320.047 304.582 348.279L294.082 331.8Z" fill="url(#paint0_linear_12_91)"/>
<path d="M188.449 201.121C199.778 201.121 209.006 207.162 213.748 217.7L214.123 218.525L233.149 212.064L232.744 211.09C225.377 193.147 208.406 181.994 188.449 181.994C174.419 181.994 163.015 186.491 153.592 195.725C144.229 204.899 139.487 216.441 139.487 230.037C139.487 243.513 144.229 254.996 153.592 264.17C163.015 273.404 174.419 277.901 188.449 277.901C208.406 277.901 225.377 266.748 232.744 248.82L233.149 247.846L214.093 241.37L213.733 242.224C209.486 252.582 200.033 258.773 188.449 258.773C180.556 258.773 173.894 256.015 168.612 250.589C163.27 245.087 160.569 238.177 160.569 230.052C160.569 221.868 163.21 215.092 168.612 209.336C173.879 203.88 180.556 201.121 188.449 201.121Z" fill="white"/>
<path d="M307.619 183.763L280.505 252.373L253.211 183.763H230.883L269.161 277.406L241.927 343.452L261.449 347.335L328.716 183.763H307.619Z" fill="white"/>
<path d="M245.42 334.938L240.663 346.451C239.718 348.729 237.557 350.273 235.126 350.378C233.521 350.438 231.901 350.483 230.265 350.483C174.281 350.453 124.749 310.984 112.475 256.6L93.418 260.902C100.305 291.407 117.591 319.094 142.095 338.881C166.883 358.892 198.109 369.94 230.055 370C230.1 370 230.34 370 230.34 370C232.216 370 234.076 369.955 235.937 369.881C245.96 369.461 254.918 363.18 258.744 353.871L264.956 338.821L245.42 334.938Z" fill="url(#paint1_linear_12_91)"/>
</g>
<defs>
<linearGradient id="paint0_linear_12_91" x1="337.051" y1="205.698" x2="275.959" y2="273.774" gradientUnits="userSpaceOnUse">
<stop offset="0.0939" stop-color="#58D09E"/>
<stop offset="0.9883" stop-color="#58D09E" stop-opacity="0"/>
</linearGradient>
<linearGradient id="paint1_linear_12_91" x1="88.5042" y1="304.738" x2="284.474" y2="356.899" gradientUnits="userSpaceOnUse">
<stop offset="0.0774" stop-color="#58D09E"/>
<stop offset="0.7617" stop-color="white"/>
</linearGradient>
<clipPath id="clip0_12_91">
<rect width="280" height="280" fill="white" transform="translate(90 90)"/>
</clipPath>
</defs>
</svg>
