<svg width="460" height="460" viewBox="0 0 460 460" fill="none" xmlns="http://www.w3.org/2000/svg">
<rect width="460" height="460" fill="#0091E2"/>
<path d="M367.219 205.864C366.439 205.23 359.364 199.912 344.435 199.912C340.484 199.912 336.532 200.205 332.629 200.937C329.751 181.08 313.358 171.42 312.626 170.981L308.626 168.64L305.991 172.445C302.674 177.568 300.283 183.178 298.868 189.13C296.185 200.449 297.795 211.084 303.552 220.159C296.624 224.013 285.452 224.989 283.207 225.038H98.7427C93.9127 225.038 90.0098 228.941 90.0098 233.771C89.8146 249.919 92.5467 265.97 98.0597 281.143C104.402 297.828 113.867 310.074 126.161 317.587C139.919 326.027 162.313 330.857 187.731 330.857C199.196 330.906 210.661 329.833 221.931 327.735C237.591 324.856 252.667 319.392 266.522 311.537C277.938 304.902 288.233 296.511 296.965 286.607C311.553 270.068 320.286 251.627 326.774 235.283H329.36C345.362 235.283 355.217 228.892 360.633 223.525C364.243 220.11 367.073 215.963 368.878 211.328L370 207.962L367.219 205.864ZM115.818 219.72H140.553C141.724 219.72 142.7 218.744 142.7 217.573V195.57C142.7 194.399 141.724 193.423 140.553 193.375H115.818C114.647 193.375 113.672 194.35 113.672 195.521V217.573C113.672 218.793 114.647 219.72 115.818 219.72ZM149.921 219.72H174.656C175.827 219.72 176.802 218.744 176.802 217.573V195.57C176.802 194.399 175.827 193.423 174.656 193.375H149.921C148.701 193.375 147.725 194.35 147.725 195.57V217.573C147.725 218.793 148.701 219.72 149.921 219.72ZM184.462 219.769H209.197C210.368 219.769 211.344 218.793 211.344 217.622V195.619C211.344 194.448 210.368 193.472 209.197 193.423H184.462C183.291 193.423 182.315 194.399 182.315 195.57V217.622C182.315 218.793 183.291 219.72 184.462 219.769ZM218.662 219.769H243.397C244.568 219.769 245.544 218.793 245.592 217.622V195.619C245.592 194.399 244.617 193.423 243.397 193.423H218.662C217.491 193.423 216.515 194.399 216.515 195.57V217.622C216.515 218.793 217.442 219.769 218.662 219.769ZM149.872 188.057H174.607C175.778 188.057 176.754 187.081 176.754 185.861V163.858C176.754 162.687 175.778 161.712 174.607 161.712H149.872C148.652 161.712 147.725 162.687 147.676 163.858V185.861C147.725 187.081 148.701 188.057 149.872 188.057ZM184.462 188.057H209.197C210.368 188.057 211.344 187.081 211.344 185.861V163.858C211.344 162.687 210.368 161.712 209.197 161.712H184.462C183.291 161.712 182.315 162.687 182.315 163.858V185.861C182.315 187.081 183.291 188.057 184.462 188.057ZM218.662 188.057H243.397C244.617 188.057 245.544 187.081 245.592 185.861V163.858C245.592 162.639 244.617 161.712 243.397 161.712H218.662C217.491 161.712 216.515 162.687 216.515 163.858V185.861C216.515 187.081 217.442 188.057 218.662 188.057ZM218.662 156.394H243.397C244.617 156.394 245.592 155.418 245.592 154.198V132.147C245.592 130.976 244.617 130 243.397 130H218.662C217.491 130 216.515 130.976 216.515 132.147V154.198C216.515 155.418 217.442 156.394 218.662 156.394ZM253.106 219.769H277.841C279.012 219.769 279.987 218.793 279.987 217.622V195.619C279.987 194.399 279.012 193.472 277.841 193.423H253.106C251.935 193.423 250.959 194.399 250.959 195.57V217.622C250.959 218.793 251.935 219.769 253.106 219.769Z" fill="white"/>
</svg>
