<svg width="460" height="460" viewBox="0 0 460 460" fill="none" xmlns="http://www.w3.org/2000/svg">
<rect width="460" height="460" fill="#2088FF"/>
<g clip-path="url(#clip0_12_61)">
<path fill-rule="evenodd" clip-rule="evenodd" d="M148.333 101.667C122.559 101.667 101.667 122.559 101.667 148.333C101.667 174.107 122.559 195 148.333 195C174.107 195 195 174.107 195 148.333C195 122.559 174.107 101.667 148.333 101.667ZM90 148.333C90 116.116 116.116 90 148.333 90C180.551 90 206.667 116.116 206.667 148.333C206.667 180.551 180.551 206.667 148.333 206.667C116.116 206.667 90 180.551 90 148.333Z" fill="white"/>
<path fill-rule="evenodd" clip-rule="evenodd" d="M224.167 206.667C208.058 206.667 195 219.725 195 235.833C195 251.942 208.058 265 224.167 265C240.275 265 253.333 251.942 253.333 235.833C253.333 219.725 240.275 206.667 224.167 206.667ZM183.333 235.833C183.333 213.282 201.615 195 224.167 195C246.718 195 265 213.282 265 235.833C265 258.385 246.718 276.667 224.167 276.667C201.615 276.667 183.333 258.385 183.333 235.833Z" fill="white"/>
<path fill-rule="evenodd" clip-rule="evenodd" d="M224.167 300C208.058 300 195 313.058 195 329.167C195 345.275 208.058 358.333 224.167 358.333C240.275 358.333 253.333 345.275 253.333 329.167C253.333 313.058 240.275 300 224.167 300ZM183.333 329.167C183.333 306.615 201.615 288.333 224.167 288.333C246.718 288.333 265 306.615 265 329.167C265 351.718 246.718 370 224.167 370C201.615 370 183.333 351.718 183.333 329.167Z" fill="white"/>
<path fill-rule="evenodd" clip-rule="evenodd" d="M329.167 300C313.058 300 300 313.058 300 329.167C300 345.275 313.058 358.333 329.167 358.333C345.275 358.333 358.333 345.275 358.333 329.167C358.333 313.058 345.275 300 329.167 300ZM288.333 329.167C288.333 306.615 306.615 288.333 329.167 288.333C351.718 288.333 370 306.615 370 329.167C370 351.718 351.718 370 329.167 370C306.615 370 288.333 351.718 288.333 329.167Z" fill="white"/>
<path fill-rule="evenodd" clip-rule="evenodd" d="M240.174 223.585C242.45 225.864 242.448 229.558 240.168 231.834L222.265 249.714C219.989 251.987 216.303 251.989 214.025 249.719L205.329 241.054C203.047 238.78 203.041 235.086 205.315 232.804C207.589 230.522 211.282 230.516 213.564 232.79L218.138 237.347L231.924 223.579C234.204 221.303 237.897 221.305 240.174 223.585Z" fill="white"/>
<path fill-rule="evenodd" clip-rule="evenodd" d="M329.167 206.667C313.058 206.667 300 219.725 300 235.833C300 251.942 313.058 265 329.167 265C345.275 265 358.333 251.942 358.333 235.833C358.333 219.725 345.275 206.667 329.167 206.667ZM288.333 235.833C288.333 213.282 306.615 195 329.167 195C351.718 195 370 213.282 370 235.833C370 258.385 351.718 276.667 329.167 276.667C306.615 276.667 288.333 258.385 288.333 235.833Z" fill="white"/>
<path fill-rule="evenodd" clip-rule="evenodd" d="M345.174 223.585C347.45 225.864 347.448 229.558 345.168 231.834L327.265 249.714C324.989 251.987 321.303 251.989 319.025 249.719L310.329 241.054C308.047 238.78 308.041 235.086 310.315 232.804C312.589 230.522 316.282 230.516 318.564 232.79L323.138 237.347L336.924 223.579C339.204 221.303 342.897 221.305 345.174 223.585Z" fill="white"/>
<path fill-rule="evenodd" clip-rule="evenodd" d="M142.5 195C145.722 195 148.333 197.612 148.333 200.833V288.333C148.333 307.64 164.232 323.333 183.333 323.333H189.167C192.388 323.333 195 325.945 195 329.167C195 332.388 192.388 335 189.167 335H183.333C157.835 335 136.667 314.13 136.667 288.333V200.833C136.667 197.612 139.278 195 142.5 195Z" fill="white"/>
<path d="M188.869 241.667C192.091 241.667 194.702 239.055 194.702 235.833C194.702 232.611 192.091 230 188.869 230V241.667ZM136.667 201.039C136.667 223.476 154.857 241.667 177.295 241.667V230C161.3 230 148.333 217.034 148.333 201.039H136.667ZM177.295 241.667H188.869V230H177.295V241.667Z" fill="white"/>
<path fill-rule="evenodd" clip-rule="evenodd" d="M253.652 235.833C253.652 232.612 256.264 230 259.486 230H294.163C297.384 230 299.996 232.612 299.996 235.833C299.996 239.055 297.384 241.667 294.163 241.667H259.486C256.264 241.667 253.652 239.055 253.652 235.833Z" fill="white"/>
<path fill-rule="evenodd" clip-rule="evenodd" d="M212.5 323.333C215.719 323.333 218.333 325.948 218.333 329.167C218.333 332.39 215.719 335 212.5 335C209.281 335 206.667 332.39 206.667 329.167C206.667 325.948 209.281 323.333 212.5 323.333Z" fill="white"/>
<path fill-rule="evenodd" clip-rule="evenodd" d="M235.833 323.333C239.052 323.333 241.667 325.948 241.667 329.167C241.667 332.39 239.052 335 235.833 335C232.614 335 230 332.39 230 329.167C230 325.948 232.614 323.333 235.833 323.333Z" fill="white"/>
<path fill-rule="evenodd" clip-rule="evenodd" d="M294.192 337.017C294.296 340.237 291.771 342.932 288.551 343.037L282.644 343.23C279.425 343.335 276.729 340.809 276.624 337.589C276.519 334.369 279.045 331.674 282.264 331.569L288.171 331.377C291.391 331.272 294.087 333.797 294.192 337.017Z" fill="white"/>
</g>
<defs>
<clipPath id="clip0_12_61">
<rect width="280" height="280" fill="white" transform="translate(90 90)"/>
</clipPath>
</defs>
</svg>
