<svg width="460" height="460" viewBox="0 0 460 460" fill="none" xmlns="http://www.w3.org/2000/svg">
<rect width="460" height="460" fill="#F0DB4F"/>
<g clip-path="url(#clip0_12_45)">
<path d="M90 90H370V370H90V90Z" fill="#F0DB4F"/>
<path d="M347.084 303.221C345.034 290.445 336.703 279.719 312.03 269.711C303.46 265.772 293.905 262.951 291.057 256.456C290.046 252.677 289.913 250.548 290.551 248.259C292.388 240.833 301.251 238.517 308.278 240.646C312.802 242.163 317.087 245.65 319.669 251.213C331.753 243.388 331.726 243.441 340.163 238.065C337.076 233.274 335.426 231.065 333.403 229.015C326.137 220.898 316.236 216.719 300.399 217.038C297.658 217.384 294.89 217.757 292.148 218.103C284.244 220.099 276.711 224.251 272.293 229.814C259.038 244.852 262.817 271.175 278.947 282.008C294.836 293.932 318.179 296.647 321.16 307.799C324.061 321.453 311.126 325.871 298.27 324.301C288.795 322.331 283.525 317.514 277.829 308.757C267.342 314.825 267.342 314.825 256.563 321.027C259.118 326.616 261.806 329.145 266.091 333.989C286.373 354.563 337.129 353.552 346.232 322.411C346.605 321.346 349.053 314.213 347.084 303.221V303.221ZM242.217 218.688H216.027C216.027 241.312 215.92 263.776 215.92 286.399C215.92 300.798 216.666 314 214.323 318.046C210.491 326.004 200.563 325.019 196.038 323.475C191.434 321.213 189.092 317.992 186.377 313.441C185.631 312.137 185.072 311.125 184.886 311.046C177.78 315.384 170.7 319.749 163.593 324.087C167.133 331.354 172.35 337.662 179.03 341.76C189.011 347.749 202.426 349.585 216.453 346.365C225.582 343.703 233.46 338.194 237.586 329.81C243.547 318.817 242.27 305.509 242.217 290.791C242.35 266.783 242.217 242.776 242.217 218.688Z" fill="#323330"/>
</g>
<defs>
<clipPath id="clip0_12_45">
<rect width="280" height="280" fill="white" transform="translate(90 90)"/>
</clipPath>
</defs>
</svg>
