<svg width="460" height="460" viewBox="0 0 460 460" fill="none" xmlns="http://www.w3.org/2000/svg">
<rect width="460" height="460" fill="#57C4DC"/>
<path d="M370 229.704C370 211.156 346.771 193.577 311.158 182.676C319.376 146.378 315.724 117.499 299.629 108.253C295.919 106.084 291.582 105.057 286.845 105.057V117.784C289.47 117.784 291.582 118.298 293.351 119.268C301.113 123.72 304.48 140.671 301.855 162.472C301.227 167.837 300.2 173.488 298.944 179.252C287.758 176.512 275.544 174.401 262.703 173.031C254.998 162.472 247.008 152.884 238.96 144.494C257.566 127.201 275.031 117.727 286.902 117.727V105C271.207 105 250.66 116.186 229.886 135.591C209.111 116.3 188.565 105.228 172.87 105.228V117.956C184.684 117.956 202.205 127.373 220.811 144.552C212.821 152.941 204.831 162.472 197.24 173.031C184.342 174.401 172.128 176.512 160.942 179.309C159.629 173.602 158.659 168.066 157.974 162.758C155.291 140.956 158.602 124.005 166.307 119.497C168.019 118.469 170.245 118.013 172.87 118.013V105.285C168.076 105.285 163.738 106.313 159.971 108.481C143.934 117.727 140.338 146.549 148.614 182.733C113.115 193.691 90 211.213 90 229.704C90 248.253 113.229 265.832 148.842 276.733C140.624 313.031 144.276 341.91 160.371 351.156C164.081 353.324 168.418 354.352 173.212 354.352C188.907 354.352 209.454 343.166 230.228 323.761C251.003 343.051 271.549 354.124 287.244 354.124C292.038 354.124 296.376 353.096 300.143 350.927C316.18 341.682 319.776 312.86 311.5 276.675C346.885 265.775 370 248.196 370 229.704V229.704ZM295.691 191.637C293.579 198.999 290.954 206.59 287.986 214.181C285.646 209.615 283.192 205.049 280.51 200.483C277.884 195.917 275.088 191.466 272.291 187.128C280.395 188.327 288.214 189.81 295.691 191.637ZM269.552 252.419C265.1 260.124 260.534 267.43 255.797 274.221C247.293 274.963 238.675 275.363 230 275.363C221.382 275.363 212.764 274.963 204.317 274.278C199.58 267.487 194.957 260.238 190.506 252.591C186.168 245.114 182.23 237.523 178.634 229.876C182.173 222.228 186.168 214.58 190.448 207.104C194.9 199.399 199.466 192.093 204.203 185.302C212.707 184.56 221.325 184.16 230 184.16C238.618 184.16 247.236 184.56 255.683 185.245C260.42 192.036 265.043 199.285 269.495 206.932C273.832 214.409 277.77 222 281.366 229.647C277.77 237.295 273.832 244.943 269.552 252.419ZM287.986 245C291.068 252.648 293.693 260.296 295.862 267.715C288.386 269.541 280.51 271.082 272.348 272.281C275.145 267.886 277.941 263.377 280.567 258.755C283.192 254.189 285.646 249.566 287.986 245ZM230.114 305.897C224.806 300.418 219.499 294.311 214.248 287.634C219.384 287.862 224.635 288.033 229.943 288.033C235.308 288.033 240.616 287.919 245.809 287.634C240.673 294.311 235.365 300.418 230.114 305.897ZM187.652 272.281C179.547 271.082 171.728 269.598 164.252 267.772C166.364 260.41 168.989 252.819 171.957 245.228C174.297 249.794 176.751 254.36 179.433 258.926C182.116 263.492 184.855 267.943 187.652 272.281ZM229.829 153.512C235.137 158.991 240.444 165.098 245.695 171.775C240.558 171.547 235.308 171.376 230 171.376C224.635 171.376 219.327 171.49 214.134 171.775C219.27 165.098 224.578 158.991 229.829 153.512ZM187.595 187.128C184.798 191.523 182.002 196.031 179.376 200.654C176.751 205.22 174.297 209.786 171.957 214.352C168.875 206.704 166.249 199.056 164.081 191.637C171.557 189.868 179.433 188.327 187.595 187.128V187.128ZM135.944 258.583C115.74 249.965 102.67 238.665 102.67 229.704C102.67 220.744 115.74 209.386 135.944 200.826C140.852 198.714 146.217 196.83 151.753 195.061C155.006 206.247 159.287 217.89 164.594 229.819C159.344 241.69 155.12 253.276 151.924 264.405C146.274 262.636 140.909 260.695 135.944 258.583ZM166.649 340.141C158.887 335.689 155.52 318.738 158.145 296.936C158.773 291.572 159.8 285.921 161.056 280.157C172.242 282.896 184.456 285.008 197.297 286.378C205.002 296.936 212.992 306.525 221.04 314.914C202.434 332.207 184.969 341.682 173.098 341.682C170.53 341.625 168.361 341.111 166.649 340.141V340.141ZM302.026 296.651C304.709 318.453 301.398 335.404 293.693 339.912C291.981 340.94 289.755 341.396 287.13 341.396C275.316 341.396 257.795 331.979 239.189 314.8C247.179 306.411 255.169 296.879 262.76 286.321C275.658 284.951 287.872 282.839 299.058 280.043C300.371 285.807 301.398 291.343 302.026 296.651V296.651ZM323.999 258.583C319.091 260.695 313.726 262.578 308.19 264.348C304.937 253.161 300.656 241.519 295.349 229.59C300.599 217.719 304.823 206.133 308.019 195.004C313.669 196.773 319.034 198.714 324.056 200.826C344.26 209.444 357.33 220.744 357.33 229.704C357.273 238.665 344.203 250.022 323.999 258.583V258.583Z" fill="white"/>
<path d="M229.943 255.787C244.348 255.787 256.025 244.109 256.025 229.704C256.025 215.3 244.348 203.622 229.943 203.622C215.538 203.622 203.861 215.3 203.861 229.704C203.861 244.109 215.538 255.787 229.943 255.787Z" fill="white"/>
</svg>
