<svg width="460" height="460" viewBox="0 0 460 460" fill="none" xmlns="http://www.w3.org/2000/svg">
<rect width="460" height="460" fill="#06B6D4"/>
<path d="M230 146C192.666 146 169.333 164.662 159.998 201.982C174 183.32 190.334 176.325 208.999 180.989C219.65 183.65 227.262 191.377 235.69 199.927C249.415 213.855 265.3 229.975 300.002 229.975C337.333 229.975 360.669 211.313 370 173.989C356.002 192.651 339.668 199.651 320.999 194.987C310.352 192.326 302.74 184.598 294.312 176.048C280.587 162.12 264.698 146 230 146ZM159.998 229.975C122.667 229.975 99.331 248.637 90 285.961C103.998 267.299 120.332 260.3 139.001 264.968C149.648 267.632 157.26 275.356 165.688 283.903C179.413 297.831 195.302 313.954 230 313.954C267.335 313.954 290.667 295.293 300.002 257.969C286 276.631 269.666 283.63 251.001 278.962C240.35 276.305 232.738 268.574 224.31 260.027C210.585 246.099 194.7 229.975 159.998 229.975Z" fill="white"/>
</svg>
