<svg width="460" height="460" viewBox="0 0 460 460" fill="none" xmlns="http://www.w3.org/2000/svg">
<rect width="460" height="460" fill="#FB3335"/>
<g clip-path="url(#clip0_12_86)">
<path d="M219.27 91.264C222.951 90.7801 226.84 91.1095 230.551 91.1095C244.297 91.1095 257.793 93.2457 270.946 97.2944C287.73 102.462 303.364 110.723 317.163 121.592C334.075 134.913 348.089 152.386 357.081 171.996C373.905 208.685 373.782 253.148 356.545 289.683C345.401 313.305 327.522 333.076 305.881 347.494C288.225 359.258 267.574 366.458 246.563 369.008C219.819 372.253 190.907 367.511 166.866 355.172C121.733 332.009 91.0491 285.39 90.442 234.301C90.3252 224.451 90.4784 214.542 92.4265 204.788C95.5994 188.903 101.132 173.547 109.44 159.608C118.428 144.529 130.037 131.223 143.939 120.495C160.242 107.914 179.189 98.8651 199.254 94.2615C204.1 93.1499 208.965 92.5338 213.855 91.938L215.4 91.75C216.688 91.5929 217.978 91.4338 219.27 91.264ZM172.579 323.528C166.364 324.195 159.809 325.327 154.474 328.821C155.675 329.11 157.052 328.823 158.304 328.821C161.313 328.816 164.351 328.703 167.357 328.835C174.881 329.165 182.722 330.37 189.988 332.365C199.291 334.918 207.486 339.944 216.449 343.332C225.905 346.907 235.317 348.018 245.347 348.018C250.402 348.018 255.418 348.003 260.319 346.622C257.761 345.259 254.1 345.515 251.266 344.947C245.119 343.714 239.074 342.21 233.161 340.098C228.809 338.544 224.617 336.625 220.445 334.666L217.764 333.405C213.891 331.583 210.008 329.786 206.004 328.272C195.474 324.29 183.806 322.323 172.579 323.528ZM181.98 297.059C169.663 297.059 157.206 299.231 146.118 304.824C143.432 306.18 140.878 307.794 138.458 309.584C137.721 310.129 136.414 310.83 136.141 311.779C135.865 312.741 136.853 313.546 137.414 314.162C140.185 312.683 142.819 311.118 145.77 309.996C164.859 302.738 187.999 304.259 207.048 310.914C216.548 314.233 225.301 319.196 234.554 323.089C244.902 327.442 255.472 330.265 266.586 331.712C279.695 333.419 294.642 332.036 306.626 326.114C310.836 324.034 316.683 320.863 318.463 316.256C316.264 316.448 314.286 317.391 312.196 318.042C308.874 319.076 305.512 319.952 302.099 320.637C290.533 322.956 278.233 323.435 266.586 321.33C255.609 319.346 245.409 315.361 235.258 311.17L233.962 310.634C233.099 310.276 232.235 309.917 231.371 309.558L230.075 309.02C224.889 306.87 219.683 304.746 214.36 302.886C204.019 299.273 192.937 297.059 181.98 297.059ZM203.567 107.681C188.802 110.946 175.576 117.303 162.83 125.316C155.431 129.969 148.352 134.735 141.94 140.722C132.404 149.627 125.116 160.451 118.76 171.756C112.211 183.403 108.012 196.978 105.983 210.149C103.992 223.071 103.664 236.658 105.944 249.59C108.795 265.759 114.221 280.932 122.791 294.965C125.67 293.619 127.715 290.549 130.102 288.482C134.923 284.307 139.984 280.437 145.422 277.098C147.435 275.862 149.502 274.902 151.689 274.023C152.514 273.691 153.862 273.388 154.25 272.481C154.867 271.041 153.726 268.534 153.53 267.042C152.971 262.774 152.633 258.434 152.739 254.128C153.045 241.586 155.387 228.869 159.845 217.13C163.204 208.285 168.336 200.254 174.416 193.047C176.479 190.601 178.672 188.325 180.935 186.066C182.273 184.732 183.933 183.59 184.765 181.878C180.4 181.88 176.034 183.14 171.883 184.42C162.941 187.176 154.229 191.265 146.815 197.034C143.432 199.666 140.956 203.116 137.757 205.886C136.776 206.736 135.018 207.875 133.662 207.234C131.614 206.266 131.93 202.231 131.696 200.376C130.793 193.244 133.492 184.221 136.923 178.038C142.43 168.113 152.613 159.637 164.571 159.933C169.736 160.061 174.257 161.857 179.195 163.03C177.943 161.249 176.264 159.952 174.668 158.492C170.759 154.916 166.482 151.65 161.786 149.18C159.896 148.186 157.862 147.582 155.867 146.852C154.864 146.485 153.601 145.98 153.223 144.864C152.525 142.798 156.242 140.884 157.608 140.012C162.887 136.643 169.36 133.872 175.713 133.716C185.641 133.472 195.342 138.986 199.432 148.37C200.87 151.669 201.295 155.157 201.577 158.678L201.628 159.338L201.702 160.329C201.71 160.44 201.718 160.55 201.726 160.66L201.775 161.321L201.826 161.983C204.944 159.438 207.137 155.694 210.182 152.968C217.303 146.594 227.048 143.765 236.295 146.634C244.651 149.227 251.914 154.999 256.189 162.681C257.307 164.69 260.427 169.602 258.173 171.604C256.409 173.171 254.171 171.95 252.311 171.3C250.902 170.808 249.446 170.496 247.985 170.207L247.188 170.051C246.923 169.999 246.657 169.947 246.392 169.893C241.332 168.878 235.447 168.983 230.376 169.876C227.097 170.453 223.894 171.621 220.627 172.105V172.803C229.559 172.877 238.199 177.977 242.606 185.717C244.432 188.924 245.344 192.594 246.043 196.188C246.908 200.63 246.3 205.471 245.088 209.8C244.681 211.252 243.943 213.713 242.208 214.047C240.983 214.284 239.942 213.062 239.242 212.238C237.407 210.079 235.662 208.027 233.509 206.162C228.063 201.445 222.305 197.095 216.449 192.9C213.34 190.672 209.934 187.776 206.352 186.415C207.359 188.844 208.346 191.101 208.689 193.745C209.696 201.52 206.444 208.838 201.563 214.687C200.074 216.472 198.481 218.27 196.603 219.656C195.825 220.232 194.848 220.983 193.818 220.82C190.589 220.309 190.204 215.438 189.709 212.942C188.033 204.488 188.706 196.091 191.032 187.811C188.963 188.862 187.466 191.161 186.167 193.047C183.307 197.196 180.826 201.585 179.047 206.31C171.961 225.13 172.03 247.173 181.209 265.29C182.234 267.314 183.789 267.042 185.81 267.042C186.114 267.042 186.419 267.04 186.724 267.037L187.64 267.028C189.472 267.009 191.308 267.001 193.121 267.243C194.062 267.369 195.369 267.257 196.113 267.951C197.005 268.782 196.53 270.207 196.324 271.231C195.751 274.09 195.559 276.69 195.559 279.607C199.37 279.016 200.426 272.9 201.777 269.834C203.308 266.361 204.866 262.884 206.282 259.363C206.978 257.633 207.91 255.698 207.665 253.779C207.391 251.622 205.834 249.336 204.749 247.496C202.696 244.015 200.362 240.433 198.85 236.676C197.641 233.673 198.767 229.919 202.174 228.846C204.054 228.255 206.059 229.415 207.282 230.775C209.847 233.626 211.502 237.868 213.364 241.213L227.89 267.391C229.123 269.608 230.36 271.822 231.622 274.023C232.114 274.881 232.615 276.207 233.624 276.573C234.522 276.899 235.75 276.436 236.643 276.257C238.962 275.792 241.279 275.29 243.606 274.869C246.396 274.364 250.648 274.459 252.659 272.278C249.718 271.345 246.319 271.4 243.258 271.611C241.42 271.737 239.382 272.395 237.693 271.321C235.179 269.721 233.507 266.027 231.969 263.552C228.176 257.448 224.603 251.252 220.971 245.053L220.39 244.066L219.222 242.094C218.639 241.107 218.06 240.118 217.499 239.119C217.065 238.347 216.422 237.33 217.044 236.478C217.696 235.585 219.119 235.532 220.404 235.53L220.659 235.53C221.164 235.531 221.637 235.531 222.02 235.481C227.203 234.798 232.459 234.233 237.687 234.233C237.28 232.816 236.117 231.214 236.489 229.697C237.322 226.302 242.201 225.24 244.471 227.676C245.994 229.311 246.88 231.562 247.871 233.535C249.179 236.14 250.668 238.658 252.069 241.213C254.521 245.688 257.199 250.041 259.72 254.477C259.928 254.843 260.142 255.207 260.359 255.57L260.685 256.116C261.773 257.935 262.866 259.766 263.452 261.807C254.695 261.406 248.121 251.23 244.303 244.355C243.998 245.456 244.493 246.438 244.889 247.496C245.712 249.693 246.695 251.786 247.932 253.779C249.7 256.625 251.726 259.556 254.4 261.622C259.145 265.289 265.402 265.309 271.112 264.917C274.773 264.665 279.348 262.997 282.95 264.129C286.545 265.259 287.993 269.228 285.857 272.277C284.258 274.561 282.123 275.424 279.468 275.768C281.345 279.799 283.805 283.54 285.588 287.635C286.33 289.341 287.104 291.956 288.884 292.856C290.069 293.455 291.766 292.897 293.047 292.871C291.761 289.466 289.354 286.577 288.172 283.098C291.776 283.263 295.262 285.145 298.618 286.347C305.219 288.71 311.737 291.293 318.245 293.9L321.249 295.104C323.926 296.178 326.619 297.24 329.257 298.407C330.222 298.834 331.558 299.832 332.625 299.218C333.495 298.716 334.058 297.52 334.595 296.71C336.097 294.443 337.457 292.09 338.804 289.729C344.199 280.275 348.156 269.915 350.799 259.363C359.518 224.563 352.038 186.165 331.086 157.096C323.036 145.927 312.913 136.272 301.751 128.275C273.819 108.265 237.173 100.251 203.567 107.681ZM260.667 281.223C253.262 283.155 245.631 284.907 238.036 285.89C239.035 289.294 241.476 292.605 243.262 295.663C243.953 296.845 244.692 298.428 246.058 298.941C247.6 299.521 249.463 298.581 250.918 298.106C250.244 296.261 249.111 294.601 248.183 292.871C247.8 292.157 247.209 291.313 247.524 290.465C248.12 288.865 250.593 288.959 251.963 288.681C255.572 287.948 259.144 287.033 262.756 286.309C264.087 286.042 265.94 285.319 267.277 285.765C268.278 286.1 268.882 286.926 269.453 287.787L269.709 288.175C270.051 288.692 270.4 289.197 270.837 289.592C272.297 290.912 274.481 291.114 276.335 291.475C275.203 288.927 273.323 286.697 272.118 284.145C271.417 282.66 270.841 280.476 269.307 279.619C267.193 278.437 262.828 280.659 260.667 281.223ZM214.012 264.25C213.663 268.675 212.307 272.275 210.182 276.117C212.617 276.426 215.102 276.535 217.494 277.129C219.286 277.574 220.938 278.422 222.716 278.909C221.766 276.306 220.002 273.984 218.636 271.58C217.256 269.153 216.022 266.204 214.012 264.25Z" fill="white"/>
</g>
<defs>
<clipPath id="clip0_12_86">
<rect width="280" height="279" fill="white" transform="translate(90 91)"/>
</clipPath>
</defs>
</svg>
