<svg width="460" height="460" viewBox="0 0 460 460" fill="none" xmlns="http://www.w3.org/2000/svg">
<rect width="460" height="460" fill="#007ACC"/>
<g clip-path="url(#clip0_12_56)">
<path d="M90 230V90H370V370H90" fill="#007ACC"/>
<path d="M151.39 230.49V241.9H187.79V345.5H213.62V241.9H250.02V230.7C250.02 224.4 250.02 219.29 249.74 219.15C249.74 218.94 227.55 218.87 200.6 218.87L151.6 219.08V230.56L151.39 230.49V230.49ZM314.98 218.8C322.12 220.48 327.58 223.7 332.48 228.81C335.07 231.61 338.92 236.51 339.2 237.77C339.2 238.19 327.09 246.38 319.74 250.93C319.46 251.14 318.34 249.95 317.22 248.13C313.58 242.95 309.87 240.71 304.06 240.29C295.66 239.73 290.06 244.14 290.06 251.49C290.06 253.73 290.48 254.99 291.32 256.81C293.21 260.66 296.71 262.97 307.56 267.73C327.58 276.34 336.26 282.01 341.51 290.13C347.46 299.23 348.79 313.51 344.8 324.22C340.32 335.91 329.4 343.82 313.79 346.41C308.89 347.25 297.69 347.11 292.44 346.2C281.24 344.1 270.53 338.5 263.95 331.29C261.36 328.49 256.39 321 256.67 320.51L259.33 318.83L269.83 312.74L277.74 308.12L279.56 310.57C281.87 314.21 287.05 319.11 290.06 320.79C299.16 325.48 311.34 324.85 317.36 319.39C319.95 317.01 321.07 314.49 321.07 310.99C321.07 307.77 320.58 306.3 318.97 303.85C316.73 300.77 312.25 298.25 299.65 292.65C285.16 286.49 279 282.57 273.26 276.55C269.97 272.91 266.96 267.24 265.56 262.55C264.51 258.49 264.16 248.55 265.14 244.56C268.15 230.56 278.72 220.76 293.84 217.96C298.74 216.98 310.29 217.4 315.12 218.66L314.98 218.8V218.8Z" fill="white"/>
</g>
<defs>
<clipPath id="clip0_12_56">
<rect width="280" height="280" fill="white" transform="translate(90 90)"/>
</clipPath>
</defs>
</svg>
