<svg width="460" height="460" viewBox="0 0 460 460" fill="none" xmlns="http://www.w3.org/2000/svg">
<rect width="460" height="460" fill="#16171E"/>
<path d="M224.988 301.112C223.774 303.27 220.945 303.884 218.929 302.427L148.618 251.511C147.542 250.732 146.912 249.487 146.912 248.164V186.797C146.912 183.418 150.76 181.465 153.509 183.45L196.504 214.59C200.524 217.504 206.193 216.268 208.633 211.96L244.252 148.915C244.985 147.615 246.371 146.804 247.871 146.804H305.057C308.241 146.804 310.245 150.214 308.687 152.971L224.988 301.112Z" fill="#22FF84"/>
<mask id="mask0_12_99" style="mask-type:alpha" maskUnits="userSpaceOnUse" x="146" y="146" width="164" height="158">
<path d="M224.988 301.111C223.774 303.269 220.945 303.884 218.929 302.426L148.618 251.51C147.542 250.73 146.912 249.486 146.912 248.163V186.796C146.912 183.417 150.76 181.464 153.509 183.448L196.504 214.589C200.524 217.503 206.193 216.266 208.633 211.958L244.252 148.914C244.985 147.614 246.371 146.803 247.871 146.803H305.057C308.241 146.803 310.245 150.213 308.687 152.97L224.988 301.111Z" fill="black"/>
</mask>
<g mask="url(#mask0_12_99)">
<g filter="url(#filter0_f_12_99)">
<path d="M250.88 183.506C232.384 205.035 213.154 218.879 207.929 214.429C202.704 209.978 213.463 188.918 231.96 167.39C250.456 145.861 269.686 132.017 274.911 136.467C280.136 140.918 269.377 161.978 250.88 183.506Z" fill="#00CCC6"/>
</g>
<g filter="url(#filter1_f_12_99)">
<path d="M138.789 263.462C122.052 240.55 116.575 216.116 126.557 208.887C136.538 201.657 158.199 214.369 174.936 237.281C191.674 260.192 197.15 284.626 187.169 291.855C177.187 299.085 155.527 286.373 138.789 263.462Z" fill="#00CCC6"/>
</g>
<g filter="url(#filter2_f_12_99)">
<path d="M162.569 210.052C174.456 215.107 187.676 210.85 192.098 200.543C196.52 190.236 190.468 177.782 178.581 172.726C166.694 167.67 153.473 171.928 149.052 182.235C144.63 192.542 150.682 204.996 162.569 210.052Z" fill="#77FF00"/>
</g>
<g filter="url(#filter3_f_12_99)">
<path d="M261.241 287.608C271.712 292.061 296.042 258.74 315.585 213.183C335.128 167.626 342.483 127.085 332.013 122.631C321.542 118.178 297.211 151.499 277.668 197.056C258.126 242.613 250.771 283.154 261.241 287.608Z" fill="#77FF00"/>
</g>
<g filter="url(#filter4_f_12_99)">
<path d="M252.408 121.855C259.556 114.737 277.056 120.622 291.494 134.998C305.932 149.374 311.841 166.799 304.693 173.917C297.544 181.034 280.045 175.15 265.607 160.774C251.168 146.398 245.259 128.973 252.408 121.855Z" fill="#97FFE2"/>
</g>
</g>
<path d="M115.404 144.001C81.6311 192.137 81.433 266.752 115.404 315.061H138.219C104.26 266.752 104.457 192.137 138.219 144.001H115.404Z" fill="white"/>
<path d="M344.604 144H321.778C355.553 192.136 355.748 266.75 321.778 315.06H344.604C378.563 266.75 378.368 192.136 344.604 144Z" fill="white"/>
<defs>
<filter id="filter0_f_12_99" x="203.663" y="132.688" width="75.514" height="85.5189" filterUnits="userSpaceOnUse" color-interpolation-filters="sRGB">
<feFlood flood-opacity="0" result="BackgroundImageFix"/>
<feBlend mode="normal" in="SourceGraphic" in2="BackgroundImageFix" result="shape"/>
<feGaussianBlur stdDeviation="1.47329" result="effect1_foregroundBlur_12_99"/>
</filter>
<filter id="filter1_f_12_99" x="118.625" y="203.912" width="76.4762" height="92.9176" filterUnits="userSpaceOnUse" color-interpolation-filters="sRGB">
<feFlood flood-opacity="0" result="BackgroundImageFix"/>
<feBlend mode="normal" in="SourceGraphic" in2="BackgroundImageFix" result="shape"/>
<feGaussianBlur stdDeviation="1.47329" result="effect1_foregroundBlur_12_99"/>
</filter>
<filter id="filter2_f_12_99" x="144.658" y="167.651" width="51.8333" height="47.4764" filterUnits="userSpaceOnUse" color-interpolation-filters="sRGB">
<feFlood flood-opacity="0" result="BackgroundImageFix"/>
<feBlend mode="normal" in="SourceGraphic" in2="BackgroundImageFix" result="shape"/>
<feGaussianBlur stdDeviation="1.47329" result="effect1_foregroundBlur_12_99"/>
</filter>
<filter id="filter3_f_12_99" x="253.528" y="119.286" width="86.1978" height="171.668" filterUnits="userSpaceOnUse" color-interpolation-filters="sRGB">
<feFlood flood-opacity="0" result="BackgroundImageFix"/>
<feBlend mode="normal" in="SourceGraphic" in2="BackgroundImageFix" result="shape"/>
<feGaussianBlur stdDeviation="1.47329" result="effect1_foregroundBlur_12_99"/>
</filter>
<filter id="filter4_f_12_99" x="246.426" y="115.886" width="64.2489" height="63.9991" filterUnits="userSpaceOnUse" color-interpolation-filters="sRGB">
<feFlood flood-opacity="0" result="BackgroundImageFix"/>
<feBlend mode="normal" in="SourceGraphic" in2="BackgroundImageFix" result="shape"/>
<feGaussianBlur stdDeviation="1.47329" result="effect1_foregroundBlur_12_99"/>
</filter>
</defs>
</svg>
