<svg width="460" height="460" viewBox="0 0 460 460" fill="none" xmlns="http://www.w3.org/2000/svg">
<rect width="460" height="460" fill="#4B32C3"/>
<path d="M175.281 195.111L228.398 164.443C229.051 164.066 229.792 163.867 230.547 163.867C231.301 163.867 232.042 164.066 232.696 164.443L285.813 195.111C286.466 195.488 287.008 196.03 287.386 196.684C287.763 197.337 287.961 198.078 287.962 198.832V260.167C287.962 261.701 287.142 263.119 285.813 263.888L232.696 294.555C232.042 294.933 231.301 295.131 230.547 295.131C229.792 295.131 229.051 294.933 228.398 294.555L175.281 263.888C174.628 263.511 174.085 262.968 173.708 262.315C173.331 261.662 173.132 260.921 173.132 260.167V198.831C173.133 197.296 173.952 195.878 175.281 195.11" fill="#8080F2"/>
<path d="M368.252 224.473L304.719 113.944C302.412 109.948 298.149 107 293.534 107H166.467C161.852 107 157.587 109.948 155.28 113.944L91.7481 224.229C89.4406 228.226 89.4406 233.271 91.7481 237.268L155.28 346.892C157.587 350.888 161.852 352.931 166.467 352.931H293.533C298.148 352.931 302.412 350.949 304.718 346.952L368.251 237.15C370.56 233.155 370.56 228.469 368.251 224.473H368.252ZM315.643 277.623C315.643 279.247 314.666 280.751 313.257 281.564L232.33 328.254C231.634 328.653 230.845 328.863 230.042 328.863C229.238 328.863 228.449 328.653 227.753 328.254L146.764 281.564C145.356 280.751 144.371 279.248 144.371 277.622V184.24C144.371 182.614 145.342 181.112 146.751 180.299L227.673 133.608C228.369 133.208 229.158 132.997 229.961 132.997C230.764 132.997 231.553 133.208 232.25 133.608L313.243 180.299C314.653 181.112 315.643 182.614 315.643 184.24V277.622V277.623Z" fill="white"/>
</svg>
