<svg width="460" height="460" viewBox="0 0 460 460" fill="none" xmlns="http://www.w3.org/2000/svg">
<rect width="460" height="460" fill="white"/>
<g clip-path="url(#clip0_12_110)">
<path d="M183.685 370C209.445 370 230.352 349.093 230.352 323.333V276.667H183.685C157.925 276.667 137.019 297.573 137.019 323.333C137.019 349.093 157.925 370 183.685 370Z" fill="#0ACF83"/>
<path d="M137.019 230C137.019 204.24 157.925 183.333 183.685 183.333H230.352V276.667H183.685C157.925 276.667 137.019 255.76 137.019 230Z" fill="#A259FF"/>
<path d="M137.019 136.667C137.019 110.907 157.925 90 183.685 90H230.352V183.333H183.685C157.925 183.333 137.019 162.427 137.019 136.667Z" fill="#F24E1E"/>
<path d="M230.352 90H277.019C302.779 90 323.685 110.907 323.685 136.667C323.685 162.427 302.779 183.333 277.019 183.333H230.352V90Z" fill="#FF7262"/>
<path d="M323.685 230C323.685 255.76 302.779 276.667 277.019 276.667C251.259 276.667 230.352 255.76 230.352 230C230.352 204.24 251.259 183.333 277.019 183.333C302.779 183.333 323.685 204.24 323.685 230Z" fill="#1ABCFE"/>
</g>
<defs>
<clipPath id="clip0_12_110">
<rect width="186.704" height="280" fill="white" transform="translate(137 90)"/>
</clipPath>
</defs>
</svg>
