<svg width="460" height="460" viewBox="0 0 460 460" fill="none" xmlns="http://www.w3.org/2000/svg">
<rect width="460" height="460" fill="white"/>
<path d="M192.008 98.7921C149.161 101.963 112.736 104.878 111.023 105.22C106.222 106.076 101.853 109.333 99.7993 113.62L98 117.392L98.1734 207.292L98.4281 297.192L101.17 302.763C102.715 305.847 113.169 320.247 124.567 335.069C147.107 364.292 148.733 365.923 157.301 366.779C159.789 367.034 178.47 366.178 198.696 364.98C219.008 363.696 251.569 361.723 271.112 360.612C354.579 355.545 350.292 355.973 355.089 351.859C361.088 346.89 360.66 355.03 360.915 245.766C361.088 153.123 361.001 147.043 359.63 144.214C358.004 141.043 355.089 138.816 317.038 112.075C291.587 94.2504 289.788 93.3074 278.385 93.134C273.676 92.966 234.768 95.5349 192.008 98.7921V98.7921ZM288.33 110.531C291.929 112.157 318.241 130.497 322.094 134.014C323.124 135.044 323.465 135.9 322.95 136.415C321.753 137.444 158.921 147.129 154.212 146.441C152.071 146.1 148.901 144.815 147.101 143.612C139.644 138.556 121.136 123.386 121.136 122.275C121.136 119.359 120.535 119.359 193.124 114.135C207.009 113.192 229.804 111.479 243.689 110.363C273.762 107.962 282.764 108.049 288.33 110.531V110.531ZM340.093 157.41C341.29 158.608 342.32 160.922 342.661 163.15C342.916 165.209 343.09 203.601 342.916 248.334C342.661 325.119 342.575 329.921 341.117 332.148C340.261 333.519 338.548 334.977 337.258 335.405C333.665 336.863 163.04 346.548 159.528 345.518C157.903 345.09 155.67 343.719 154.472 342.521L152.413 340.294L152.158 257.51C151.984 199.407 152.158 173.696 152.846 171.382C153.361 169.669 154.645 167.61 155.762 166.927C157.306 165.897 167.419 165.041 202.213 162.987C226.639 161.616 264.43 159.302 286.114 158.017C337.692 154.841 337.524 154.841 340.093 157.41V157.41Z" fill="black"/>
<path d="M294.243 185.776C284.986 186.378 276.759 187.234 275.816 187.749C272.987 189.207 271.275 191.608 270.933 194.35C270.679 197.179 271.535 197.52 280.786 198.637L284.813 199.152V235.745C284.813 257.51 284.472 271.91 284.043 271.481C283.615 270.967 271.448 252.459 256.962 230.347C242.481 208.154 230.482 189.895 230.308 189.727C230.135 189.554 220.71 190.069 209.4 190.844C195.515 191.787 187.889 192.643 186.345 193.499C183.857 194.784 181.115 199.325 181.115 202.328C181.115 204.127 184.372 205.07 191.228 205.07H194.826V310.307L189 312.107C184.459 313.478 182.914 314.334 182.144 316.047C180.773 318.962 180.86 321.618 182.231 321.618C182.746 321.618 192.431 321.016 203.568 320.334C225.593 319.049 228.075 318.447 230.39 313.906C231.078 312.535 231.674 311.077 231.674 310.649C231.674 310.307 228.677 309.278 225.073 308.421C221.388 307.565 217.702 306.709 216.933 306.535C215.475 306.107 215.388 303.452 215.388 266.598V227.09L241.44 267.97C268.776 310.817 272.207 315.705 276.407 317.846C281.637 320.588 294.92 318.702 301.603 314.334L303.662 313.05L303.836 254.605L304.09 196.073L308.632 195.217C314.03 194.187 316.517 191.705 316.517 187.418C316.517 184.676 316.344 184.503 313.775 184.589C312.241 184.66 303.413 185.175 294.243 185.776V185.776Z" fill="black"/>
</svg>
