<svg width="460" height="460" viewBox="0 0 460 460" fill="none" xmlns="http://www.w3.org/2000/svg">
<rect width="460" height="460" fill="#1A2B34"/>
<g clip-path="url(#clip0_12_128)">
<path d="M296.667 143.333H310C313.733 143.333 316.667 146.267 316.667 150C316.667 153.733 313.733 156.667 310 156.667H296.667C292.933 156.667 290 153.733 290 150C290 146.267 292.933 143.333 296.667 143.333Z" fill="#56B3B4"/>
<path d="M96.6667 356.667H163.333C167.067 356.667 170 359.6 170 363.333C170 367.067 167.067 370 163.333 370H96.6667C92.9333 370 90 367.067 90 363.333C90 359.6 92.9333 356.667 96.6667 356.667Z" fill="#EA5E5E"/>
<path d="M256.667 250H296.667C300.4 250 303.333 252.933 303.333 256.667C303.333 260.4 300.4 263.333 296.667 263.333H256.667C252.933 263.333 250 260.4 250 256.667C250 252.933 252.933 250 256.667 250Z" fill="#BF85BF"/>
<path d="M176.667 250H230C233.733 250 236.667 252.933 236.667 256.667C236.667 260.4 233.733 263.333 230 263.333H176.667C172.933 263.333 170 260.4 170 256.667C170 252.933 172.933 250 176.667 250Z" fill="#EA5E5E"/>
<path d="M96.6667 250H150C153.733 250 156.667 252.933 156.667 256.667C156.667 260.4 153.733 263.333 150 263.333H96.6667C92.9333 263.333 90 260.4 90 256.667C90 252.933 92.9333 250 96.6667 250Z" fill="#56B3B4"/>
<path d="M96.6667 303.333H163.333C167.067 303.333 170 306.267 170 310C170 313.733 167.067 316.667 163.333 316.667H96.6667C92.9333 316.667 90 313.733 90 310C90 306.267 92.9333 303.333 96.6667 303.333Z" fill="#BF85BF"/>
<path d="M96.6667 196.667H163.333C167.067 196.667 170 199.6 170 203.333C170 207.067 167.067 210 163.333 210H96.6667C92.9333 210 90 207.067 90 203.333C90 199.6 92.9333 196.667 96.6667 196.667Z" fill="#BF85BF"/>
<path d="M163.333 116.667H296.667C300.4 116.667 303.333 119.6 303.333 123.333C303.333 127.067 300.4 130 296.667 130H163.333C159.6 130 156.667 127.067 156.667 123.333C156.667 119.6 159.6 116.667 163.333 116.667Z" fill="#F7BA3E"/>
<path d="M96.6667 116.667H136.667C140.4 116.667 143.333 119.6 143.333 123.333C143.333 127.067 140.4 130 136.667 130H96.6667C92.9333 130 90 127.067 90 123.333C90 119.6 92.9333 116.667 96.6667 116.667Z" fill="#EA5E5E"/>
<path d="M150 330H163.333C167.067 330 170 332.933 170 336.667C170 340.4 167.067 343.333 163.333 343.333H150C146.267 343.333 143.333 340.4 143.333 336.667C143.333 332.933 146.267 330 150 330Z" fill="#F7BA3E"/>
<path d="M150 170H163.333C167.067 170 170 172.933 170 176.667C170 180.4 167.067 183.333 163.333 183.333H150C146.267 183.333 143.333 180.4 143.333 176.667C143.333 172.933 146.267 170 150 170Z" fill="#56B3B4"/>
<path d="M96.6667 330H123.333C127.067 330 130 332.933 130 336.667C130 340.4 127.067 343.333 123.333 343.333H96.6667C92.9333 343.333 90 340.4 90 336.667C90 332.933 92.9333 330 96.6667 330Z" fill="#56B3B4"/>
<path d="M96.6667 170H123.333C127.067 170 130 172.933 130 176.667C130 180.4 127.067 183.333 123.333 183.333H96.6667C92.9333 183.333 90 180.4 90 176.667C90 172.933 92.9333 170 96.6667 170Z" fill="#F7BA3E"/>
<path opacity="0.5" d="M270 330H283.333C287.067 330 290 332.933 290 336.667C290 340.4 287.067 343.333 283.333 343.333H270C266.267 343.333 263.333 340.4 263.333 336.667C263.333 332.933 266.267 330 270 330Z" fill="#D0D4D8"/>
<path opacity="0.5" d="M190 330H243.333C247.067 330 250 332.933 250 336.667C250 340.4 247.067 343.333 243.333 343.333H190C186.267 343.333 183.333 340.4 183.333 336.667C183.333 332.933 186.267 330 190 330Z" fill="#D0D4D8"/>
<path opacity="0.5" d="M310 330H363.333C367.067 330 370 332.933 370 336.667C370 340.4 367.067 343.333 363.333 343.333H310C306.267 343.333 303.333 340.4 303.333 336.667C303.333 332.933 306.267 330 310 330Z" fill="#D0D4D8"/>
<path d="M203.333 223.333H310C313.733 223.333 316.667 226.267 316.667 230C316.667 233.733 313.733 236.667 310 236.667H203.333C199.6 236.667 196.667 233.733 196.667 230C196.667 226.267 199.6 223.333 203.333 223.333Z" fill="#56B3B4"/>
<path d="M136.667 223.333H176.667C180.4 223.333 183.333 226.267 183.333 230C183.333 233.733 180.4 236.667 176.667 236.667H136.667C132.933 236.667 130 233.733 130 230C130 226.267 132.933 223.333 136.667 223.333Z" fill="#F7BA3E"/>
<path d="M96.6667 223.333H110C113.733 223.333 116.667 226.267 116.667 230C116.667 233.733 113.733 236.667 110 236.667H96.6667C92.9333 236.667 90 233.733 90 230C90 226.267 92.9333 223.333 96.6667 223.333Z" fill="#EA5E5E"/>
<path d="M216.667 143.333H270C273.733 143.333 276.667 146.267 276.667 150C276.667 153.733 273.733 156.667 270 156.667H216.667C212.933 156.667 210 153.733 210 150C210 146.267 212.933 143.333 216.667 143.333Z" fill="#BF85BF"/>
<path d="M96.6667 143.333H190C193.733 143.333 196.667 146.267 196.667 150C196.667 153.733 193.733 156.667 190 156.667H96.6667C92.9333 156.667 90 153.733 90 150C90 146.267 92.9333 143.333 96.6667 143.333Z" fill="#56B3B4"/>
<path d="M136.667 276.667H256.667C260.4 276.667 263.333 279.6 263.333 283.333C263.333 287.067 260.4 290 256.667 290H136.667C132.933 290 130 287.067 130 283.333C130 279.6 132.933 276.667 136.667 276.667Z" fill="#F7BA3E"/>
<path d="M96.6667 276.667H110C113.733 276.667 116.667 279.6 116.667 283.333C116.667 287.067 113.733 290 110 290H96.6667C92.9333 290 90 287.067 90 283.333C90 279.6 92.9333 276.667 96.6667 276.667Z" fill="#BF85BF"/>
<path d="M256.667 170H323.333C327.067 170 330 172.933 330 176.667C330 180.4 327.067 183.333 323.333 183.333H256.667C252.933 183.333 250 180.4 250 176.667C250 172.933 252.933 170 256.667 170Z" fill="#EA5E5E"/>
<path d="M256.667 196.667H323.333C327.067 196.667 330 199.6 330 203.333C330 207.067 327.067 210 323.333 210H256.667C252.933 210 250 207.067 250 203.333C250 199.6 252.933 196.667 256.667 196.667Z" fill="#F7BA3E"/>
<path d="M96.6667 90H256.667C260.4 90 263.333 92.9333 263.333 96.6667C263.333 100.4 260.4 103.333 256.667 103.333H96.6667C92.9333 103.333 90 100.4 90 96.6667C90 92.9333 92.9333 90 96.6667 90Z" fill="#56B3B4"/>
<path opacity="0.5" d="M283.333 90H363.333C367.067 90 370 92.9333 370 96.6667C370 100.4 367.067 103.333 363.333 103.333H283.333C279.6 103.333 276.667 100.4 276.667 96.6667C276.667 92.9333 279.6 90 283.333 90Z" fill="#D0D4D8"/>
<path opacity="0.5" d="M283.333 276.667H310C313.733 276.667 316.667 279.6 316.667 283.333C316.667 287.067 313.733 290 310 290H283.333C279.6 290 276.667 287.067 276.667 283.333C276.667 279.6 279.6 276.667 283.333 276.667Z" fill="#D0D4D8"/>
<path opacity="0.5" d="M336.667 276.667H363.333C367.067 276.667 370 279.6 370 283.333C370 287.067 367.067 290 363.333 290H336.667C332.933 290 330 287.067 330 283.333C330 279.6 332.933 276.667 336.667 276.667Z" fill="#D0D4D8"/>
<path opacity="0.5" d="M323.333 250H363.333C367.067 250 370 252.933 370 256.667C370 260.4 367.067 263.333 363.333 263.333H323.333C319.6 263.333 316.667 260.4 316.667 256.667C316.667 252.933 319.6 250 323.333 250Z" fill="#D0D4D8"/>
<path opacity="0.5" d="M323.333 116.667H363.333C367.067 116.667 370 119.6 370 123.333C370 127.067 367.067 130 363.333 130H323.333C319.6 130 316.667 127.067 316.667 123.333C316.667 119.6 319.6 116.667 323.333 116.667Z" fill="#D0D4D8"/>
<path opacity="0.5" d="M336.667 223.333H363.333C367.067 223.333 370 226.267 370 230C370 233.733 367.067 236.667 363.333 236.667H336.667C332.933 236.667 330 233.733 330 230C330 226.267 332.933 223.333 336.667 223.333Z" fill="#D0D4D8"/>
<path opacity="0.5" d="M336.667 143.333H363.333C367.067 143.333 370 146.267 370 150C370 153.733 367.067 156.667 363.333 156.667H336.667C332.933 156.667 330 153.733 330 150C330 146.267 332.933 143.333 336.667 143.333Z" fill="#D0D4D8"/>
<path opacity="0.5" d="M350 170H363.333C367.067 170 370 172.933 370 176.667C370 180.4 367.067 183.333 363.333 183.333H350C346.267 183.333 343.333 180.4 343.333 176.667C343.333 172.933 346.267 170 350 170Z" fill="#D0D4D8"/>
<path opacity="0.5" d="M350 196.667H363.333C367.067 196.667 370 199.6 370 203.333C370 207.067 367.067 210 363.333 210H350C346.267 210 343.333 207.067 343.333 203.333C343.333 199.6 346.267 196.667 350 196.667Z" fill="#D0D4D8"/>
<path opacity="0.5" d="M243.333 303.333H363.333C367.067 303.333 370 306.267 370 310C370 313.733 367.067 316.667 363.333 316.667H243.333C239.6 316.667 236.667 313.733 236.667 310C236.667 306.267 239.6 303.333 243.333 303.333Z" fill="#D0D4D8"/>
<path opacity="0.5" d="M190 303.333H216.667C220.4 303.333 223.333 306.267 223.333 310C223.333 313.733 220.4 316.667 216.667 316.667H190C186.267 316.667 183.333 313.733 183.333 310C183.333 306.267 186.267 303.333 190 303.333Z" fill="#D0D4D8"/>
<path opacity="0.5" d="M296.667 356.667H363.333C367.067 356.667 370 359.6 370 363.333C370 367.067 367.067 370 363.333 370H296.667C292.933 370 290 367.067 290 363.333C290 359.6 292.933 356.667 296.667 356.667Z" fill="#D0D4D8"/>
<path opacity="0.5" d="M190 356.667H270C273.733 356.667 276.667 359.6 276.667 363.333C276.667 367.067 273.733 370 270 370H190C186.267 370 183.333 367.067 183.333 363.333C183.333 359.6 186.267 356.667 190 356.667Z" fill="#D0D4D8"/>
<path opacity="0.5" d="M190 170H230C233.733 170 236.667 172.933 236.667 176.667C236.667 180.4 233.733 183.333 230 183.333H190C186.267 183.333 183.333 180.4 183.333 176.667C183.333 172.933 186.267 170 190 170Z" fill="#D0D4D8"/>
<path opacity="0.5" d="M190 196.667H230C233.733 196.667 236.667 199.6 236.667 203.333C236.667 207.067 233.733 210 230 210H190C186.267 210 183.333 207.067 183.333 203.333C183.333 199.6 186.267 196.667 190 196.667Z" fill="#D0D4D8"/>
</g>
<defs>
<clipPath id="clip0_12_128">
<rect width="280" height="280" fill="white" transform="translate(90 90)"/>
</clipPath>
</defs>
</svg>
