<svg width="460" height="460" viewBox="0 0 460 460" fill="none" xmlns="http://www.w3.org/2000/svg">
<rect width="460" height="460" fill="#FF4785"/>
<mask id="mask0_12_176" style="mask-type:alpha" maskUnits="userSpaceOnUse" x="118" y="90" width="225" height="280">
<path d="M126.684 348.011L118.01 116.892C117.724 109.26 123.576 102.791 131.2 102.314L327.782 90.0279C335.542 89.5429 342.225 95.4403 342.71 103.2C342.729 103.492 342.738 103.785 342.738 104.078V355.922C342.738 363.697 336.435 370 328.66 370C328.449 370 328.239 369.995 328.028 369.986L140.12 361.546C132.802 361.218 126.959 355.331 126.684 348.011Z" fill="#FF4785"/>
</mask>
<g mask="url(#mask0_12_176)">
<path d="M126.684 348.011L118.01 116.892C117.724 109.26 123.576 102.791 131.2 102.314L327.782 90.0279C335.542 89.5429 342.225 95.4403 342.71 103.2C342.729 103.492 342.738 103.785 342.738 104.078V355.922C342.738 363.697 336.435 370 328.66 370C328.449 370 328.239 369.995 328.028 369.986L140.12 361.546C132.802 361.218 126.959 355.331 126.684 348.011Z" fill="white"/>
<path d="M283.952 124.416L285.295 92.1212L312.291 90L313.454 123.305C313.495 124.464 312.588 125.437 311.429 125.477C310.933 125.494 310.446 125.335 310.056 125.028L299.645 116.827L287.319 126.177C286.395 126.878 285.078 126.697 284.377 125.773C284.082 125.384 283.932 124.904 283.952 124.416ZM249.426 195.536C249.426 201.013 286.318 198.388 291.271 194.541C291.271 157.243 271.258 137.644 234.611 137.644C197.964 137.644 177.431 157.548 177.431 187.404C177.431 239.404 247.606 240.399 247.606 268.762C247.606 276.724 243.708 281.451 235.131 281.451C223.955 281.451 219.536 275.744 220.056 256.337C220.056 252.127 177.431 250.815 176.132 256.337C172.823 303.366 202.123 316.931 235.651 316.931C268.139 316.931 293.61 299.614 293.61 268.265C293.61 212.533 222.395 214.026 222.395 186.409C222.395 175.213 230.712 173.72 235.651 173.72C240.849 173.72 250.205 174.637 249.426 195.536Z" fill="#FF4785"/>
</g>
</svg>
