<svg width="64" height="64" viewBox="0 0 64 64" fill="none" xmlns="http://www.w3.org/2000/svg">
<g clip-path="url(#clip0_4_357)">
<circle cx="32" cy="32" r="32" fill="#CC641F"/>
<path d="M46.265 14.6506C45.6515 14.6506 45.0631 14.8943 44.6293 15.3281C44.1955 15.762 43.9518 16.3503 43.9518 16.9639C43.9518 17.5774 44.1955 18.1658 44.6293 18.5996C45.0631 19.0334 45.6515 19.2771 46.265 19.2771C46.8785 19.2771 47.4669 19.5208 47.9007 19.9546C48.3346 20.3885 48.5783 20.9768 48.5783 21.5904V31.3176C47.4028 30.6364 46.0915 30.2227 44.7379 30.1061C43.3842 29.9895 42.0216 30.1728 40.7468 30.6429C39.4721 31.113 38.3168 31.8584 37.363 32.826C36.4093 33.7936 35.6806 34.9596 35.2289 36.241H29.5421C29.0904 34.9596 28.3617 33.7936 27.408 32.826C26.4542 31.8584 25.2989 31.113 24.0242 30.6429C22.7494 30.1728 21.3868 29.9895 20.0331 30.1061C18.6795 30.2227 17.3682 30.6364 16.1927 31.3176V21.5904C16.1927 20.9768 16.4364 20.3885 16.8703 19.9546C17.3041 19.5208 17.8925 19.2771 18.506 19.2771C19.1195 19.2771 19.7079 19.0334 20.1417 18.5996C20.5755 18.1658 20.8192 17.5774 20.8192 16.9639C20.8192 16.3503 20.5755 15.762 20.1417 15.3281C19.7079 14.8943 19.1195 14.6506 18.506 14.6506C16.6654 14.6506 14.9003 15.3818 13.5988 16.6832C12.2974 17.9847 11.5662 19.7498 11.5662 21.5904V39.3253C11.5687 41.6437 12.4414 43.8767 14.0116 45.5824C15.5818 47.2881 17.7351 48.3422 20.0454 48.5361C22.3556 48.73 24.6545 48.0496 26.4871 46.6294C28.3196 45.2093 29.5523 43.153 29.9412 40.8675H34.8298C35.2187 43.153 36.4514 45.2093 38.2839 46.6294C40.1165 48.0496 42.4154 48.73 44.7256 48.5361C47.0359 48.3422 49.1892 47.2881 50.7594 45.5824C52.3296 43.8767 53.2023 41.6437 53.2048 39.3253V21.5904C53.2048 19.7498 52.4736 17.9847 51.1722 16.6832C49.8707 15.3818 48.1056 14.6506 46.265 14.6506ZM20.8192 43.9518C19.9042 43.9518 19.0097 43.6805 18.2489 43.1721C17.4881 42.6637 16.8951 41.9412 16.5449 41.0958C16.1947 40.2504 16.1031 39.3202 16.2816 38.4227C16.4601 37.5253 16.9008 36.7009 17.5478 36.0539C18.1948 35.4068 19.0192 34.9662 19.9166 34.7877C20.8141 34.6092 21.7443 34.7008 22.5897 35.051C23.4351 35.4011 24.1577 35.9941 24.666 36.755C25.1744 37.5158 25.4457 38.4103 25.4457 39.3253C25.4457 40.5523 24.9583 41.7291 24.0907 42.5967C23.223 43.4644 22.0463 43.9518 20.8192 43.9518ZM43.9518 43.9518C43.0367 43.9518 42.1422 43.6805 41.3814 43.1721C40.6206 42.6637 40.0276 41.9412 39.6774 41.0958C39.3273 40.2504 39.2356 39.3202 39.4142 38.4227C39.5927 37.5253 40.0333 36.7009 40.6803 36.0539C41.3274 35.4068 42.1517 34.9662 43.0492 34.7877C43.9466 34.6092 44.8769 34.7008 45.7223 35.051C46.5676 35.4011 47.2902 35.9941 47.7986 36.755C48.3069 37.5158 48.5783 38.4103 48.5783 39.3253C48.5783 40.5523 48.0908 41.7291 47.2232 42.5967C46.3556 43.4644 45.1788 43.9518 43.9518 43.9518Z" fill="#F2F2F7"/>
</g>
<defs>
<clipPath id="clip0_4_357">
<rect width="64" height="64" fill="white"/>
</clipPath>
</defs>
</svg>
