<svg width="460" height="460" viewBox="0 0 460 460" fill="none" xmlns="http://www.w3.org/2000/svg">
<rect width="460" height="460" fill="#FBFBE1"/>
<path d="M230.187 324.513C242.748 324.488 252.95 334.651 252.974 347.212C252.998 359.773 242.835 369.975 230.274 370C230.183 370 230.091 370 230 370C229.909 370 229.817 370 229.726 370C217.165 369.975 207.002 359.773 207.026 347.212C207.05 334.651 217.252 324.488 229.813 324.513H230.187ZM130.874 296.637C139.774 287.773 154.174 287.8 163.039 296.7C163.126 296.787 163.213 296.874 163.301 296.961C172.2 305.826 172.227 320.226 163.363 329.126C154.498 338.025 140.097 338.053 131.198 329.188C131.069 329.06 130.94 328.931 130.812 328.802C121.947 319.903 121.975 305.502 130.874 296.637ZM296.961 296.7C305.826 287.8 320.226 287.773 329.126 296.637C338.025 305.502 338.053 319.903 329.188 328.802C329.06 328.931 328.931 329.06 328.802 329.188C319.903 338.053 305.502 338.025 296.637 329.126C287.773 320.226 287.8 305.826 296.7 296.961C296.787 296.874 296.874 296.787 296.961 296.7ZM230.253 160.253C268.634 160.253 299.747 191.366 299.747 229.747C299.747 268.128 268.634 299.242 230.253 299.242C230.211 299.242 230.169 299.241 230.127 299.241C230.085 299.241 230.042 299.242 230 299.242C229.639 299.242 229.279 299.237 228.92 299.228C191.154 298.517 160.758 267.683 160.758 229.747C160.758 191.366 191.872 160.253 230.253 160.253ZM112.788 207.026C125.349 207.05 135.512 217.252 135.487 229.813V230.187C135.512 242.748 125.349 252.95 112.788 252.974C100.227 252.998 90.0246 242.835 90.0005 230.274C90.0003 230.183 90 230.091 90 230C90 229.909 90.0003 229.817 90.0005 229.726C90.0246 217.165 100.227 207.002 112.788 207.026ZM347.212 207.026C359.773 207.002 369.975 217.165 370 229.726C370 229.817 370 229.909 370 230C370 230.091 370 230.183 370 230.274C369.975 242.835 359.773 252.998 347.212 252.974C334.651 252.95 324.488 242.748 324.513 230.187V229.813C324.488 217.252 334.651 207.05 347.212 207.026ZM230.253 185.523C205.829 185.523 186.029 205.323 186.029 229.747C186.029 236.48 187.534 242.861 190.225 248.573C194.592 230.66 210.743 217.365 230 217.365C249.509 217.365 265.83 231.011 269.94 249.279C272.844 243.389 274.477 236.759 274.477 229.747C274.477 205.323 254.677 185.523 230.253 185.523ZM131.198 130.812C140.097 121.947 154.498 121.975 163.363 130.874C172.227 139.774 172.2 154.174 163.301 163.039C163.213 163.126 163.126 163.213 163.039 163.301C154.174 172.2 139.774 172.227 130.874 163.363C121.975 154.498 121.947 140.097 130.812 131.198C130.94 131.069 131.069 130.94 131.198 130.812ZM296.637 130.874C305.502 121.975 319.903 121.947 328.802 130.812C328.931 130.94 329.06 131.069 329.188 131.198C338.053 140.097 338.025 154.498 329.126 163.363C320.226 172.227 305.826 172.2 296.961 163.301C296.874 163.213 296.787 163.126 296.7 163.039C287.8 154.174 287.773 139.774 296.637 130.874ZM230.274 90.0005C242.835 90.0246 252.998 100.227 252.974 112.788C252.95 125.349 242.748 135.512 230.187 135.487H229.813C217.252 135.512 207.05 125.349 207.026 112.788C207.002 100.227 217.165 90.0246 229.726 90.0005C229.817 90.0003 229.909 90 230 90C230.091 90 230.183 90.0003 230.274 90.0005Z" fill="#0D0E02"/>
</svg>
