<svg width="460" height="460" viewBox="0 0 460 460" fill="none" xmlns="http://www.w3.org/2000/svg">
<rect width="460" height="460" fill="#EC3B33"/>
<path d="M292.716 163.065L269.801 197.954L272.144 213.312H250.238L247.057 192.609L267.369 161.722H192.946L213.16 192.504L209.972 213.312H188.049L190.424 197.824L167.574 163.065V126.166H186.113L195.142 139.873H213.6L222.621 126.166H237.727L246.756 139.873H265.173L274.17 126.166H292.716V163.065ZM267.239 323.519L258.543 267.48L234.017 304.769H226.119L201.642 267.651L192.962 323.519H171.048L184.356 236.78H207.596L230.031 270.921L252.475 236.78H275.845L289.153 323.519H267.239V323.519ZM345.396 90H114L114.22 255.058C114.301 318.638 166.183 370.089 230.08 370C293.977 369.919 345.729 318.305 345.64 254.733L345.396 90V90Z" fill="white"/>
</svg>
