<svg width="460" height="460" viewBox="0 0 460 460" fill="none" xmlns="http://www.w3.org/2000/svg">
<rect width="460" height="460" fill="#48A59D"/>
<path d="M315.867 151C299.48 151 284.661 157.753 274.022 168.607C263.396 157.753 248.603 151 232.216 151C219.259 151 207.307 155.274 197.593 162.403L221.832 186.655C224.994 185.222 228.491 184.404 232.176 184.404C246.031 184.404 257.273 195.633 257.273 209.501L257.299 309.821H290.704L290.717 209.514V209.488H290.757C290.757 195.633 301.972 184.391 315.827 184.391H336.623L370 151H315.867Z" fill="white"/>
<path d="M173.624 209.509L173.638 251.328C173.638 265.183 162.409 276.424 148.554 276.424C134.7 276.424 123.498 265.183 123.498 251.328V184.318L90 217.897V251.314C90 283.62 116.289 309.815 148.595 309.815C180.913 309.815 207.095 283.62 207.095 251.314L207.109 209.496C207.109 199.339 213.152 190.603 221.835 186.663L197.595 162.411C183.097 173.05 173.624 190.161 173.624 209.509Z" fill="white"/>
</svg>
